<svg xmlns="http://www.w3.org/2000/svg" xmlns:xlink="http://www.w3.org/1999/xlink" width="315.002" height="73.904" viewBox="0 0 315.002 73.904">
  <defs>
    <clipPath id="clip-path">
      <rect id="Rectangle_1" data-name="Rectangle 1" width="315.002" height="73.904" fill="#fff"/>
    </clipPath>
  </defs>
  <g id="Group_2" data-name="Group 2" transform="translate(0 224)">
    <g id="Group_1" data-name="Group 1" transform="translate(0 -224)" clip-path="url(#clip-path)">
      <path id="Path_1" data-name="Path 1" d="M79.277,9.305c-11.841,0-17.526,9.315-17.526,17.225v.059c0,7.969,5.685,17.294,17.526,17.294s17.529-9.325,17.529-17.294S91.122,9.305,79.277,9.305m0,25.488a7.915,7.915,0,0,1-7.8-8.145v-.06a7.807,7.807,0,1,1,15.594,0,7.927,7.927,0,0,1-7.794,8.2" transform="translate(18.696 2.817)" fill="#fff"/>
      <path id="Path_2" data-name="Path 2" d="M49.555,9.259c-9.9,0-17.062,8.382-17.062,17.462A17.272,17.272,0,0,0,49.73,43.959,15.761,15.761,0,0,0,59,41.019a17.657,17.657,0,0,0,4.6-4.65,2.361,2.361,0,0,0-1.967-3.675H55.656a6.563,6.563,0,0,1-5.926,3.052c-3.808,0-7.092-2.288-7.5-5.744H66.443c.763-5.972-.47-11.188-4.567-15.582a16.683,16.683,0,0,0-12.32-5.16M42.346,22.62c.233-1.526,2.228-5.156,7.267-5.156s7.038,3.631,7.272,5.156Z" transform="translate(9.838 2.803)" fill="#fff"/>
      <path id="Path_3" data-name="Path 3" d="M26.209,28.217,9.561,1.793H0V40.817A4.333,4.333,0,0,0,4.332,45.15h6.285l-.233-26.131L26.975,45.15h9.612V6.126a4.333,4.333,0,0,0-4.332-4.333H25.974Z" transform="translate(0 0.543)" fill="#fff"/>
      <path id="Path_4" data-name="Path 4" d="M114.592,20.854c-7.8-3.52-8.963-4.633-8.963-6.623,0-2.052,1.853-3.228,3.783-3.313,3.859-.168,5.617,3.261,6.578,5.285l5.266-2.85a4.343,4.343,0,0,0,1.057-6.82,17.045,17.045,0,0,0-13.065-5.375c-7.272,0-14.636,4.642-14.636,13.374,0,8.142,6.825,11.019,11.075,12.414,6.032,2.114,9.811,2.221,9.729,5.868-.044,1.991-2.3,3.171-4.934,3.1-2.96-.082-6.5-2.138-8.579-5.757l-4.963,2.783a4.34,4.34,0,0,0-.947,6.845,19.579,19.579,0,0,0,14.161,5.832C121.644,45.361,126.1,39.4,126.1,32.485c0-5.039-1.707-7.82-11.511-11.631" transform="translate(28.644 0.351)" fill="#fff"/>
      <path id="Path_5" data-name="Path 5" d="M168.855,0a5.715,5.715,0,1,0,5.715,5.715A5.715,5.715,0,0,0,168.855,0" transform="translate(49.392 0)" fill="#fff"/>
      <path id="Path_6" data-name="Path 6" d="M163.487,42.376h10.525V10.982H167.82a4.333,4.333,0,0,0-4.333,4.333Z" transform="translate(49.497 3.325)" fill="#fff"/>
      <path id="Path_7" data-name="Path 7" d="M176.253,45.307h10.525V0h-6.192a4.333,4.333,0,0,0-4.333,4.333Z" transform="translate(53.362 0)" fill="#fff"/>
      <path id="Path_8" data-name="Path 8" d="M199.226,42.443a114.849,114.849,0,0,0,21.3-7.539,2.376,2.376,0,0,0-2.367-2.209h-5.974a6.563,6.563,0,0,1-5.926,3.052c-3.808,0-7.092-2.288-7.5-5.744H222.97c.762-5.972-.472-11.188-4.569-15.582a16.683,16.683,0,0,0-12.32-5.16c-9.9,0-17.062,8.382-17.062,17.462a17.226,17.226,0,0,0,10.207,15.722m6.912-24.979c5.047,0,7.037,3.631,7.272,5.156H198.87c.234-1.526,2.229-5.156,7.268-5.156" transform="translate(57.227 2.803)" fill="#fff"/>
      <path id="Path_9" data-name="Path 9" d="M141.335,21.12V40.166c2.721.766,6.2,1.657,10.292,2.521h.233V21.12c3.159-3.484,6.558-1.757,7.4,0V42.687h6.193a4.333,4.333,0,0,0,4.333-4.332V21.12h-.018a12.537,12.537,0,0,0-11.858-12.3c-.245-.009-.487-.012-.726-.008-4.687.082-7.977,4.358-7.977,4.358-1.85-2.127-4.851-5.262-9.949-4.358a11.311,11.311,0,0,0-6.146,3.6V9.442H126.92a4.333,4.333,0,0,0-4.333,4.333v24.58a4.333,4.333,0,0,0,4.333,4.332h6.192v-21c2.748-4.495,7.3-2.823,8.223-.572" transform="translate(37.114 2.619)" fill="#fff"/>
      <path id="Path_10" data-name="Path 10" d="M136.219,46.413S222.172,72.828,273.76,10.978c0,0-29.342,105.845-137.541,35.435" transform="translate(41.241 3.324)" fill="#f99325"/>
    </g>
  </g>
</svg>
